<svg width="100" height="100" viewBox="0 0 100 100" fill="none" xmlns="http://www.w3.org/2000/svg">
<path d="M46.612 9.43002C47.6854 6.90479 48.2223 5.64217 48.9698 5.25336C49.6189 4.91555 50.3812 4.91555 51.0303 5.25336C51.7777 5.64217 52.3147 6.90479 53.3881 9.43002L61.9381 29.5438C62.2557 30.2903 62.4142 30.6636 62.66 30.9494C62.877 31.2024 63.1427 31.4047 63.439 31.5431C63.7742 31.6997 64.1618 31.7426 64.9371 31.8283L85.822 34.1398C88.444 34.43 89.7548 34.575 90.3386 35.2002C90.8453 35.7433 91.0809 36.5037 90.9752 37.2556C90.8537 38.121 89.8744 39.0462 87.9159 40.8972L72.3149 55.6398C71.7363 56.1868 71.4465 56.4605 71.2633 56.7936C71.101 57.0887 70.9995 57.4159 70.9656 57.7543C70.9272 58.1369 71.0078 58.5366 71.1697 59.3364L75.5272 80.8785C76.0743 83.5832 76.3479 84.9354 75.9612 85.7104C75.625 86.3843 75.0084 86.8539 74.2938 86.9808C73.4713 87.1267 72.3293 86.4363 70.0453 85.055L51.8533 74.0522C51.1782 73.6438 50.8407 73.4401 50.4818 73.3599C50.1642 73.2894 49.8359 73.2894 49.5183 73.3599C49.1594 73.4401 48.8219 73.6438 48.1468 74.0522L29.9549 85.055C27.671 86.4363 26.529 87.1267 25.7064 86.9808C24.9919 86.8539 24.375 86.3843 24.0391 85.7104C23.6525 84.9354 23.926 83.5832 24.4731 80.8785L28.8304 59.3364C28.9922 58.5366 29.073 58.1369 29.0346 57.7543C29.0006 57.4159 28.8992 57.0887 28.737 56.7936C28.5536 56.4605 28.2641 56.1868 27.6851 55.6398L12.0845 40.8972C10.1259 39.0462 9.14658 38.121 9.02482 37.2556C8.91911 36.5037 9.1547 35.7433 9.66167 35.2002C10.2453 34.575 11.5563 34.43 14.1784 34.1398L35.0633 31.8283C35.8384 31.7426 36.226 31.6997 36.5611 31.5431C36.8576 31.4047 37.1231 31.2024 37.3404 30.9494C37.5859 30.6636 37.7446 30.2903 38.0619 29.5438L46.612 9.43002Z" stroke="black" stroke-width="7" stroke-linecap="round" stroke-linejoin="round"/>
</svg>
