<svg width="100" height="100" viewBox="0 0 100 100" fill="none" xmlns="http://www.w3.org/2000/svg">
<g clip-path="url(#clip0_2079_25)">
<path d="M29.7273 57.6364V47.4545H70.1818V57.6364H56.1818V94H43.7273V57.6364H29.7273Z" fill="#BB0000"/>
<path d="M49.5 43C49.5 43 50.9248 38.7893 51.3025 36C52.4158 27.7699 46.5841 23.2301 47.6975 15C48.0751 12.2105 49.5 8 49.5 8" stroke="#BB0000" stroke-width="6" stroke-linecap="round" stroke-linejoin="round"/>
<path d="M64.9444 39.2222C64.9444 39.2222 66.3694 35.9473 66.7468 33.7778C67.8604 27.3767 62.0285 23.8456 63.1421 17.4444C63.5195 15.2748 64.9444 12 64.9444 12" stroke="#BB0000" stroke-width="6" stroke-linecap="round" stroke-linejoin="round"/>
<path d="M33.9444 39.1111C33.9444 39.1111 35.3694 35.8361 35.7468 33.6666C36.8604 27.2655 31.0285 23.7344 32.1421 17.3333C32.5195 15.1637 33.9444 11.8889 33.9444 11.8889" stroke="#BB0000" stroke-width="6" stroke-linecap="round" stroke-linejoin="round"/>
</g>
<defs>
<clipPath id="clip0_2079_25">
<rect width="100" height="100" fill="white"/>
</clipPath>
</defs>
</svg>
