<svg width="100" height="100" viewBox="0 0 100 100" fill="none" xmlns="http://www.w3.org/2000/svg">
<g clip-path="url(#clip0_255_3)">
<path d="M50 0C22.4332 0 0 22.4284 0 49.9982C0 77.5678 22.4317 100 50 100C77.573 100 100 77.5696 100 49.9982C100 22.4284 77.5744 0 50 0ZM71.6399 39.7541L45.4532 65.9404C44.6669 66.7257 43.6307 67.1222 42.6041 67.1222C41.5697 67.1222 40.5431 66.726 39.7542 65.9404L28.3654 54.5517C26.7908 52.9757 26.7908 50.4266 28.3654 48.8523C29.9397 47.278 32.4889 47.278 34.0634 48.8523L42.6041 57.3957L65.9453 34.0538C67.5164 32.4813 70.0653 32.4813 71.6399 34.0538C73.2145 35.6307 73.2145 38.1798 71.6399 39.7541Z" fill="#2EB571"/>
</g>
<defs>
<clipPath id="clip0_255_3">
<rect width="100" height="100" fill="white"/>
</clipPath>
</defs>
</svg>
